HIERARCHY
ROOT Hips
{
	OFFSET -3.958830 18.904000 13.208200
	CHANNELS 6 Xposition Yposition Zposition Zrotation Yrotation Xrotation 
	JOINT LHipJoint
	{
		OFFSET 0.000000 0.000000 0.000000
		CHANNELS 3 Zrotation Yrotation Xrotation
		JOINT LeftUpLeg
		{
			OFFSET 1.800000 -1.400000 0.085000
			CHANNELS 3 Zrotation Yrotation Xrotation
			JOINT LeftLeg
			{
				OFFSET 2.215000 -6.000000 0.000000
				CHANNELS 3 Zrotation Yrotation Xrotation
				JOINT LeftFoot
				{
					OFFSET 2.500000 -6.900000 0.000000
					CHANNELS 3 Zrotation Yrotation Xrotation
					JOINT LeftToeBase
					{
						OFFSET 0.200000 -0.500000 1.950000
						CHANNELS 3 Zrotation Yrotation Xrotation
						End Site
						{
							OFFSET 0.000000 0.000000 0.000000
						}
					}
				}
			}
		}
	}
	JOINT RHipJoint
	{
		OFFSET 0.000000 0.000000 0.000000
		CHANNELS 3 Zrotation Yrotation Xrotation
		JOINT RightUpLeg
		{
			OFFSET -1.800000 -1.400000 0.085000
			CHANNELS 3 Zrotation Yrotation Xrotation
			JOINT RightLeg
			{
				OFFSET -2.215000 -6.000000 0.000000
				CHANNELS 3 Zrotation Yrotation Xrotation
				JOINT RightFoot
				{
					OFFSET -2.500000 -6.900000 0.000000
					CHANNELS 3 Zrotation Yrotation Xrotation
					JOINT RightToeBase
					{
						OFFSET -0.200000 -0.500000 1.950000
						CHANNELS 3 Zrotation Yrotation Xrotation
						End Site
						{
							OFFSET 0.000000 0.000000 0.000000
						}
					}
				}
			}
		}
	}
	JOINT LowerBack
	{
		OFFSET 0.000000 0.000000 0.000000
		CHANNELS 3 Zrotation Yrotation Xrotation
		JOINT Spine
		{
			OFFSET -0.087000 1.940000 -0.288900
			CHANNELS 3 Zrotation Yrotation Xrotation
			JOINT Spine1
			{
				OFFSET 0.000000 1.950000 0.060000
				CHANNELS 3 Zrotation Yrotation Xrotation
				JOINT Neck
				{
					OFFSET 0.000000 0.000000 0.000000
					CHANNELS 3 Zrotation Yrotation Xrotation
					JOINT Neck1
					{
						OFFSET 0.000000 1.600000 0.340000
						CHANNELS 3 Zrotation Yrotation Xrotation
						JOINT Head
						{
							OFFSET 0.000000 1.667000 -0.240000
							CHANNELS 3 Zrotation Yrotation Xrotation
							End Site
							{
								OFFSET 0.000000 0.000000 0.000000
							}
						}
					}
				}
				JOINT LeftShoulder
				{
					OFFSET 0.000000 0.000000 0.000000
					CHANNELS 3 Zrotation Yrotation Xrotation
					JOINT LeftArm
					{
						OFFSET 2.700000 1.550000 -0.730000
						CHANNELS 3 Zrotation Yrotation Xrotation
						JOINT LeftForeArm
						{
							OFFSET 5.450000 0.000000 0.000000
							CHANNELS 3 Zrotation Yrotation Xrotation
							JOINT LeftHand
							{
								OFFSET 3.450000 0.000000 0.000000
								CHANNELS 3 Zrotation Yrotation Xrotation
								JOINT LeftHandIndex1
								{
									OFFSET 0.750000 0.000000 0.000000
									CHANNELS 3 Zrotation Yrotation Xrotation
									End Site
									{
										OFFSET 0.000000 0.000000 0.000000
									}
								}
							}
						}
					}
				}
				JOINT RightShoulder
				{
					OFFSET 0.000000 0.000000 0.000000
					CHANNELS 3 Zrotation Yrotation Xrotation
					JOINT RightArm
					{
						OFFSET -2.700000 1.550000 -0.730000
						CHANNELS 3 Zrotation Yrotation Xrotation
						JOINT RightForeArm
						{
							OFFSET -5.450000 0.000000 0.000000
							CHANNELS 3 Zrotation Yrotation Xrotation
							JOINT RightHand
							{
								OFFSET -3.450000 0.000000 0.000000
								CHANNELS 3 Zrotation Yrotation Xrotation
								JOINT RightHandIndex1
								{
									OFFSET -0.750000 0.000000 0.000000
									CHANNELS 3 Zrotation Yrotation Xrotation
									End Site
									{
										OFFSET 0.000000 0.000000 0.000000
									}
								}
							}
						}
					}
				}
			}
		}
	}
}
MOTION
Frames: 9
Frame Time: 0.016667
-1.165210 17.389580 -0.089820 -2.686374 -14.363382 8.958054 -15.462622 13.831508 2.909717 17.622090 -2.638036 -15.797262 -5.379633 5.472421 10.052915 -0.439984 4.315404 3.002133 0.431310 0.392570 0.232250 17.965834 -9.674648 2.630625 -21.382780 -0.088243 -25.609604 5.496328 -3.802372 8.304315 0.026582 -2.772844 3.253778 0.410110 0.200700 0.069220 -2.598748 -4.710470 -7.117960 1.554237 -0.515819 5.982555 7.660780 -0.752207 9.366866 -5.761571 -8.199478 -8.725708 -19.576391 5.753333 27.303765 -0.345250 1.974560 -9.862610 -5.852499 -6.765640 1.790783 -62.675648 -40.080359 21.059853 -39.719029 -45.068748 15.655744 -3.738331 3.363910 0.146890 0.149680 -0.069410 0.163050 17.351162 10.885944 6.999392 53.483808 -0.419429 -8.360632 3.139477 25.222941 -1.132482 2.142865 -1.457375 -0.152890 0.284050 -0.059880 -0.091300 
-1.290700 17.325320 -0.115870 -2.502646 -16.202233 9.408361 -15.495135 13.822095 2.869179 18.015968 -2.794950 -15.240271 -5.223035 5.421643 9.770426 -0.427225 4.368087 2.990815 0.434190 0.403290 0.223560 17.959023 -9.414897 2.795429 -21.572392 -0.048576 -26.638321 5.522401 -3.327874 5.763464 0.025417 -2.685933 3.284654 0.418150 0.220320 0.076670 -2.560070 -5.012430 -7.174167 1.190813 -1.265449 5.954938 6.744125 -1.377834 9.263531 -5.898933 -8.741082 -9.253347 -20.682885 7.197722 25.971943 -0.198090 2.834400 -9.766410 -5.320376 -8.027406 1.743430 -60.096081 -40.069312 19.682176 -29.849038 -39.423381 9.965970 -3.752415 3.268297 0.133010 0.163540 -0.075590 0.170680 17.165163 12.089793 7.688050 53.711218 -0.459960 -9.009467 4.986577 28.324319 -0.951272 2.104229 -1.494179 -0.149990 0.288480 -0.057450 -0.081820 
-1.430760 17.284830 -0.120060 -2.307696 -18.189100 9.822048 -15.520035 13.805831 2.894939 18.634994 -2.881932 -14.519162 -5.981208 5.603499 9.432001 -0.407734 4.540464 2.932809 0.445380 0.423130 0.227830 17.963105 -9.216516 2.848155 -21.434468 -0.019256 -27.784914 5.784614 -3.216680 5.272985 0.028725 -2.638689 3.293366 0.437800 0.229860 0.081500 -2.551904 -5.285699 -7.173585 1.321585 -2.292549 5.990780 5.276849 -2.143963 8.947840 -5.806416 -9.537377 -9.584545 -22.192096 8.932398 23.708719 -0.720780 4.061790 -9.873840 -5.483438 -8.142706 1.599669 -57.491724 -38.311412 17.849925 -23.316829 -34.519019 6.630121 -3.779741 3.201765 0.120030 0.177720 -0.080570 0.176240 17.187190 12.351034 8.029029 53.108655 -0.959671 -9.788636 10.267640 32.377434 0.045754 2.065969 -1.556343 -0.151640 0.291450 -0.060500 -0.081090 
-1.581790 17.268030 -0.120840 -2.032142 -20.062568 10.093027 -15.528283 13.837866 2.947120 19.029785 -2.940870 -13.900129 -6.567406 5.730951 9.136670 -0.394661 4.661518 2.888120 0.457480 0.440560 0.246260 17.969441 -9.149300 2.811501 -20.642700 0.039057 -29.152912 5.482970 -3.266033 6.421786 0.036778 -2.515370 3.329026 0.447910 0.219710 0.081500 -2.555140 -5.470927 -7.148439 1.560720 -3.390063 6.427346 3.575264 -2.959612 8.441932 -5.377852 -10.182068 -9.843613 -23.517845 10.696433 21.711110 -1.283280 5.426860 -10.573980 -6.332719 -7.988130 1.417090 -54.204513 -35.467462 15.297694 -18.801807 -30.330367 4.534659 -3.798500 3.139340 0.130370 0.172670 -0.066840 0.174220 17.282278 12.311366 8.219972 52.575692 -1.653865 -10.510969 16.279302 35.885477 1.538401 2.051195 -1.605258 -0.153280 0.297070 -0.066230 -0.088400 
-1.729450 17.267260 -0.128850 -1.889372 -21.406219 10.219069 -15.506604 13.846646 3.004566 19.349436 -2.935511 -13.338688 -7.036125 5.784168 8.664051 -0.372700 4.722621 2.853008 0.475610 0.463670 0.273370 17.996168 -9.154655 2.757891 -19.634573 0.171385 -30.126423 5.220413 -3.387595 7.929132 0.033616 -2.410427 3.354779 0.449480 0.180850 0.083830 -2.632095 -5.510341 -7.131405 2.456562 -4.607991 7.152884 1.699172 -3.904365 8.054534 -4.792255 -10.711549 -10.144867 -24.990042 12.439972 20.642385 -1.995790 6.864620 -11.292480 -7.016702 -7.848977 1.437320 -50.726342 -32.347632 12.741268 -15.979678 -26.997692 3.290878 -3.795321 3.109321 0.149180 0.150130 -0.036910 0.166160 16.878160 12.248960 8.230618 51.878409 -1.644488 -10.658913 23.598548 38.905771 3.757923 2.068141 -1.664253 -0.139710 0.281430 -0.079450 -0.099450 
-1.885510 17.272000 -0.144130 -1.962015 -22.185508 10.539215 -15.479188 13.827110 3.053001 19.692688 -2.944077 -12.947588 -6.981486 5.618510 7.719205 -0.361506 4.704203 2.847918 0.496260 0.493560 0.291520 18.029733 -9.173901 2.710819 -18.326512 0.449165 -30.991900 5.085582 -3.529715 9.547308 0.030310 -2.333233 3.376198 0.456080 0.150890 0.094310 -2.731482 -5.473607 -7.102050 3.500462 -5.809833 7.637899 0.098308 -4.914978 7.911817 -4.286283 -10.934919 -10.307867 -25.620463 13.827487 20.039754 -2.565520 8.100790 -11.861060 -7.038540 -7.622528 1.614995 -48.072189 -29.633683 10.982556 -14.239437 -23.582483 2.451806 -3.801135 3.099421 0.159120 0.138670 -0.010670 0.165060 15.932004 11.960031 7.959646 51.324949 -0.934971 -10.143623 30.777059 40.491064 6.118009 2.093558 -1.724397 -0.121770 0.262660 -0.092630 -0.104930 
-2.060830 17.278650 -0.162080 -1.861034 -22.640183 10.934904 -15.471271 13.782820 3.118614 19.887025 -2.999255 -12.584547 -6.976164 5.371502 6.328356 -0.349730 4.689197 2.859907 0.495660 0.495610 0.299400 18.048838 -9.156110 2.679798 -17.071338 0.764876 -31.838272 4.919827 -3.632503 10.954029 0.038064 -2.280680 3.396487 0.454790 0.146620 0.099430 -2.783659 -5.461179 -7.087622 4.103079 -6.850003 7.955791 -1.167924 -5.811472 7.752168 -3.825548 -11.073210 -10.340179 -25.929067 15.086329 19.404768 -3.192170 9.336810 -11.787790 -7.552097 -7.141799 1.700720 -45.594462 -26.902232 9.461815 -13.011660 -20.238603 1.829180 -3.830346 3.083406 0.158700 0.145540 -0.005110 0.164080 15.592504 11.415075 7.686565 50.450602 -0.762862 -9.619153 38.350631 42.185901 8.943275 2.112125 -1.793065 -0.121250 0.253850 -0.097490 -0.110560 
-2.242250 17.292500 -0.180550 -1.691140 -23.048584 11.484504 -15.464379 13.698686 3.177669 19.754467 -3.074183 -12.278582 -6.842720 5.000365 4.593882 -0.342667 4.620015 2.892225 0.507670 0.514450 0.320430 18.069129 -9.117381 2.686434 -16.119850 1.079682 -32.474903 5.079735 -3.695120 11.643592 0.029501 -2.240588 3.407944 0.460220 0.127360 0.103120 -2.845029 -5.402242 -7.086267 4.668154 -7.562202 8.175445 -2.466115 -6.379106 7.632505 -3.342352 -11.161604 -10.319633 -25.900070 15.961570 18.580742 -3.987850 10.397040 -12.412510 -7.917249 -6.499368 1.681129 -43.438664 -24.612377 8.302067 -12.203105 -17.012062 1.352010 -3.848066 3.063915 0.168270 0.140710 0.015530 0.164740 15.040694 10.744268 7.485551 50.610893 -0.972688 -9.436301 44.584437 43.528771 11.438742 2.125680 -1.847218 -0.117040 0.248550 -0.111610 -0.118010 
-2.418650 17.307650 -0.202110 -1.887212 -23.555677 12.290524 -15.449810 13.538951 3.267502 19.879970 -3.189221 -12.026263 -7.050173 4.677301 2.726666 -0.336228 4.620109 2.892768 0.522190 0.531230 0.337300 18.102128 -9.062060 2.711451 -15.166908 1.496434 -33.062458 5.480304 -3.738976 12.021051 0.023352 -2.205360 3.413071 0.470660 0.111920 0.107680 -2.952218 -5.247929 -7.107487 5.606776 -7.894994 8.410251 -3.585120 -6.557810 7.487787 -3.046783 -11.281425 -10.200990 -25.962782 16.535200 17.844012 -4.318620 10.939260 -12.996580 -8.274811 -5.679398 1.476014 -41.671891 -23.027298 7.585603 -11.781908 -14.064748 0.982249 -3.872067 3.049408 0.178620 0.134810 0.028430 0.161090 14.783243 9.925935 7.327725 50.498710 -1.771212 -9.415491 50.243873 44.211728 13.656144 2.127949 -1.894309 -0.114500 0.244810 -0.116330 -0.126140 
